<svg xmlns="http://www.w3.org/2000/svg" viewBox="0 0 128 128" role="img" aria-label="Chatbot guida turistica">
<defs>
  <!-- Glossy gradients -->
  <linearGradient id="gBlue" x1="0" y1="0" x2="0" y2="1">
    <stop offset="0" stop-color="#77c3ff"/>
    <stop offset="0.55" stop-color="#2f7dff"/>
    <stop offset="1" stop-color="#1b4fd6"/>
  </linearGradient>
  <linearGradient id="gBlue2" x1="0" y1="0" x2="1" y2="1">
    <stop offset="0" stop-color="#9fe0ff"/>
    <stop offset="0.5" stop-color="#2f86ff"/>
    <stop offset="1" stop-color="#1a45c8"/>
  </linearGradient>
  <linearGradient id="gWhite" x1="0" y1="0" x2="0" y2="1">
    <stop offset="0" stop-color="#ffffff"/>
    <stop offset="1" stop-color="#dfe9f7"/>
  </linearGradient>
  <linearGradient id="gGray" x1="0" y1="0" x2="0" y2="1">
    <stop offset="0" stop-color="#3a4556"/>
    <stop offset="1" stop-color="#161c26"/>
  </linearGradient>
  <linearGradient id="gRed" x1="0" y1="0" x2="0" y2="1">
    <stop offset="0" stop-color="#ff6a5e"/>
    <stop offset="1" stop-color="#d91712"/>
  </linearGradient>
  <linearGradient id="gGreen" x1="0" y1="0" x2="1" y2="1">
    <stop offset="0" stop-color="#7cff7a"/>
    <stop offset="1" stop-color="#1aa64a"/>
  </linearGradient>
  <linearGradient id="gYellow" x1="0" y1="0" x2="1" y2="1">
    <stop offset="0" stop-color="#ffe38a"/>
    <stop offset="1" stop-color="#f2b413"/>
  </linearGradient>

  <!-- Soft shadow -->
  <filter id="shadow" x="-40%" y="-40%" width="180%" height="180%">
    <feDropShadow dx="0" dy="8" stdDeviation="6" flood-color="#000" flood-opacity="0.35"/>
    <feDropShadow dx="0" dy="2" stdDeviation="1.5" flood-color="#000" flood-opacity="0.25"/>
  </filter>

  <!-- Inner shine -->
  <filter id="shine" x="-30%" y="-30%" width="160%" height="160%">
    <feGaussianBlur in="SourceAlpha" stdDeviation="1.2" result="b"/>
    <feOffset dx="0" dy="-1" result="o"/>
    <feComposite in="o" in2="SourceAlpha" operator="arithmetic" k2="-1" k3="1" result="inner"/>
    <feColorMatrix in="inner" type="matrix"
      values="1 0 0 0 1
              0 1 0 0 1
              0 0 1 0 1
              0 0 0 .22 0"/>
    <feComposite in="SourceGraphic" operator="over"/>
  </filter>

  <!-- white outline style -->
  <style>
    .ol{stroke:#ffffff;stroke-opacity:.95;stroke-width:6;stroke-linejoin:round;stroke-linecap:round}
    .ol2{stroke:#eaf2ff;stroke-opacity:.9;stroke-width:3;stroke-linejoin:round;stroke-linecap:round}
  </style>
</defs>

<g filter="url(#shadow)">
  <ellipse cx="64" cy="106" rx="30" ry="9" fill="#000" opacity=".18"/>
  <!-- head -->
  <path class="ol" fill="none" d="M38 58 a26 26 0 0 1 52 0 v10 a22 22 0 0 1-22 22 H60 A22 22 0 0 1 38 68 Z"/>
  <path d="M38 58 a26 26 0 0 1 52 0 v10 a22 22 0 0 1-22 22 H60 A22 22 0 0 1 38 68 Z" fill="url(#gWhite)"/>
  <!-- screen -->
  <path d="M45 60 a17 17 0 0 1 34 0 v6 a14 14 0 0 1-14 14 H59 a14 14 0 0 1-14-14Z" fill="#0d1a2c"/>
  <circle cx="57" cy="67" r="5" fill="#66c8ff"/>
  <circle cx="71" cy="67" r="5" fill="#66c8ff"/>
  <path d="M59 77 q5 6 10 0" fill="none" stroke="#bfe9ff" stroke-width="4" stroke-linecap="round"/>
  <!-- headset -->
  <path d="M34 66 q-4 0-4 6 v8 q0 6 6 6 h6 v-22 h-4z" fill="url(#gBlue2)"/>
  <path d="M94 66 q4 0 4 6 v8 q0 6-6 6 h-6 v-22 h4z" fill="url(#gBlue2)"/>
  <!-- mic -->
  <path d="M84 82 q10 2 10 10" fill="none" stroke="#2f7dff" stroke-width="4" stroke-linecap="round"/>
  <circle cx="95" cy="95" r="4.5" fill="url(#gBlue)"/>
  <!-- hat -->
  <path class="ol" fill="none" d="M42 50 q22-18 44 0"/>
  <path d="M42 50 q22-18 44 0 q-4 9-22 10 q-18-1-22-10Z" fill="#f3d9a8"/>
  <path d="M38 53 q26 10 52 0 q-3 10-26 12 q-23-2-26-12Z" fill="#e4c48d"/>
  <path d="M45 49 q19-14 38 0" fill="none" stroke="#b56a45" stroke-width="6" stroke-linecap="round"/>
  <!-- speech bubble -->
  <path class="ol" fill="none" d="M82 26 a18 12 0 0 1 28 10 a18 12 0 0 1-18 12 h-8 l-8 8 v-10 a18 12 0 0 1 6-20Z"/>
  <path d="M82 26 a18 12 0 0 1 28 10 a18 12 0 0 1-18 12 h-8 l-8 8 v-10 a18 12 0 0 1 6-20Z" fill="#d9f2ff"/>
  <path d="M88 38 h14" stroke="#79c36a" stroke-width="5" stroke-linecap="round"/>
  <path d="M95 32 q6 6 0 12" stroke="#2a8d49" stroke-width="4" fill="none" stroke-linecap="round"/>
</g>

</svg>
